<?xml version="1.0" encoding="UTF-8" standalone="no"?><!DOCTYPE svg PUBLIC "-//W3C//DTD SVG 1.1//EN" "http://www.w3.org/Graphics/SVG/1.1/DTD/svg11.dtd"><svg width="100%" height="100%" viewBox="0 0 500 500" version="1.1" xmlns="http://www.w3.org/2000/svg" xmlns:xlink="http://www.w3.org/1999/xlink" xml:space="preserve" xmlns:serif="http://www.serif.com/" style="fill-rule:evenodd;clip-rule:evenodd;stroke-linejoin:round;stroke-miterlimit:1.41421;"><g><circle cx="250" cy="250" r="20.154" style="fill:#295aa0;"/><path d="M250.162,224.847l0.162,0.001l0.161,0.003l0.162,0.003l0.161,0.005l0.161,0.006l0.161,0.006l0.16,0.008l0.16,0.008l0.16,0.01l0.16,0.011l0.159,0.011l0.16,0.013l0.159,0.014l0.159,0.014l0.158,0.016l0.158,0.017l0.158,0.017l0.158,0.019l0.158,0.019l0.157,0.021l0.157,0.021l0.156,0.023l0.157,0.023l0.156,0.024l0.155,0.026l0.155,0.026l0.156,0.027l0.155,0.028l0.154,0.03l0.154,0.03l0.154,0.031l0.154,0.032l0.152,0.032l0.154,0.034l0.152,0.035l0.152,0.036l0.152,0.036l0.151,0.038l0.151,0.038l0.151,0.039l0.15,0.041l0.15,0.041l0.15,0.042l0.149,0.043l0.149,0.044l0.149,0.044l0.148,0.046l0.147,0.046l0.148,0.048l0.146,0.048l0.147,0.049l0.146,0.05l0.146,0.051l0.145,0.052l0.145,0.052l0.144,0.054l0.144,0.054l0.144,0.055l0.143,0.056l0.143,0.057l0.142,0.058l0.142,0.058l0.141,0.059l0.142,0.061l0.147,0.064l0.273,0.121l0.278,0.128l0.276,0.131l0.274,0.134l0.272,0.138l0.271,0.14l0.268,0.144l0.266,0.147l0.265,0.15l0.262,0.153l0.26,0.156l0.259,0.159l0.256,0.162l0.254,0.165l0.252,0.168l0.249,0.171l0.248,0.174l0.245,0.177l0.243,0.179l0.241,0.183l0.238,0.185l0.237,0.188l0.234,0.191l0.231,0.193l0.229,0.196l0.227,0.199l0.224,0.201l0.222,0.205l0.219,0.206l0.217,0.209l0.215,0.212l0.212,0.215l0.209,0.216l0.206,0.22l0.205,0.222l0.201,0.224l0.199,0.227l0.196,0.229l0.193,0.232l0.191,0.233l0.188,0.237l0.185,0.238l0.182,0.241l0.18,0.243l0.177,0.245l0.174,0.248l0.171,0.249l0.168,0.252l0.165,0.254l0.162,0.256l0.159,0.259l0.156,0.26l0.153,0.262l0.15,0.265l0.147,0.266l0.144,0.269l0.14,0.27l0.138,0.272l0.134,0.274l0.131,0.276l0.128,0.278l0.121,0.273l0.064,0.148l0.06,0.14l0.06,0.142l0.059,0.142l0.057,0.142l0.057,0.143l0.056,0.143l0.055,0.143l0.054,0.145l0.054,0.144l0.052,0.145l0.052,0.145l0.051,0.146l0.05,0.146l0.049,0.147l0.048,0.146l0.048,0.148l0.046,0.147l0.046,0.149l0.045,0.148l0.043,0.148l0.043,0.15l0.042,0.15l0.041,0.149l0.041,0.151l0.039,0.151l0.038,0.151l0.038,0.151l0.036,0.152l0.036,0.152l0.035,0.152l0.034,0.154l0.032,0.153l0.032,0.153l0.031,0.154l0.03,0.154l0.03,0.155l0.028,0.154l0.027,0.155l0.026,0.156l0.026,0.156l0.024,0.155l0.023,0.157l0.023,0.156l0.021,0.157l0.021,0.157l0.019,0.158l0.019,0.157l0.017,0.158l0.017,0.159l0.016,0.158l0.014,0.16l0.014,0.158l0.013,0.159l0.011,0.16l0.011,0.16l0.01,0.16l0.008,0.16l0.008,0.16l0.006,0.161l0.006,0.161l0.005,0.161l0.003,0.162l0.003,0.161l0.001,0.162l0.001,0.162l-0.001,0.162l-0.001,0.162l-0.003,0.161l-0.003,0.162l-0.005,0.161l-0.006,0.161l-0.006,0.161l-0.008,0.16l-0.008,0.16l-0.01,0.16l-0.011,0.16l-0.011,0.16l-0.013,0.159l-0.014,0.158l-0.014,0.16l-0.016,0.158l-0.017,0.159l-0.017,0.158l-0.019,0.157l-0.019,0.158l-0.021,0.157l-0.021,0.157l-0.023,0.156l-0.023,0.157l-0.024,0.155l-0.026,0.156l-0.026,0.156l-0.027,0.154l-0.028,0.155l-0.03,0.155l-0.03,0.154l-0.031,0.154l-0.032,0.154l-0.032,0.152l-0.034,0.154l-0.035,0.152l-0.036,0.152l-0.036,0.152l-0.038,0.151l-0.038,0.151l-0.039,0.151l-0.041,0.151l-0.041,0.149l-0.042,0.15l-0.043,0.15l-0.043,0.148l-0.045,0.148l-0.046,0.149l-0.046,0.147l-0.048,0.148l-0.048,0.146l-0.049,0.147l-0.05,0.146l-0.051,0.146l-0.052,0.145l-0.052,0.145l-0.054,0.144l-0.054,0.145l-0.055,0.143l-0.056,0.143l-0.057,0.143l-0.057,0.142l-0.059,0.142l-0.06,0.142l-0.06,0.14l-0.064,0.148l-0.121,0.273l-0.128,0.278l-0.131,0.276l-0.134,0.274l-0.138,0.272l-0.14,0.27l-0.144,0.269l-0.147,0.266l-0.15,0.265l-0.153,0.262l-0.156,0.26l-0.159,0.259l-0.162,0.256l-0.165,0.254l-0.168,0.252l-0.171,0.25l-0.174,0.247l-0.177,0.245l-0.18,0.243l-0.182,0.241l-0.185,0.238l-0.188,0.237l-0.191,0.234l-0.193,0.231l-0.196,0.229l-0.199,0.227l-0.201,0.224l-0.205,0.222l-0.206,0.22l-0.209,0.216l-0.212,0.215l-0.215,0.212l-0.216,0.209l-0.22,0.206l-0.222,0.205l-0.224,0.201l-0.227,0.199l-0.229,0.196l-0.231,0.193l-0.234,0.191l-0.237,0.188l-0.238,0.185l-0.241,0.182l-0.243,0.18l-0.245,0.177l-0.247,0.174l-0.25,0.171l-0.252,0.168l-0.254,0.165l-0.256,0.162l-0.259,0.159l-0.26,0.156l-0.262,0.153l-0.265,0.15l-0.266,0.147l-0.269,0.144l-0.27,0.14l-0.272,0.138l-0.274,0.134l-0.276,0.131l-0.278,0.128l-0.273,0.121l-0.148,0.064l-0.14,0.06l-0.142,0.06l-0.142,0.059l-0.142,0.057l-0.143,0.057l-0.143,0.056l-0.143,0.055l-0.145,0.054l-0.144,0.054l-0.145,0.052l-0.145,0.052l-0.146,0.051l-0.146,0.05l-0.147,0.049l-0.146,0.048l-0.148,0.048l-0.147,0.046l-0.149,0.046l-0.148,0.045l-0.148,0.043l-0.15,0.043l-0.15,0.042l-0.149,0.041l-0.151,0.041l-0.151,0.039l-0.151,0.038l-0.151,0.038l-0.152,0.036l-0.152,0.036l-0.152,0.035l-0.154,0.034l-0.152,0.032l-0.154,0.032l-0.154,0.031l-0.154,0.03l-0.155,0.03l-0.155,0.028l-0.154,0.027l-0.156,0.026l-0.156,0.026l-0.155,0.024l-0.157,0.023l-0.156,0.023l-0.157,0.021l-0.157,0.021l-0.158,0.019l-0.157,0.019l-0.158,0.017l-0.159,0.017l-0.158,0.016l-0.16,0.014l-0.158,0.014l-0.159,0.013l-0.16,0.011l-0.16,0.011l-0.16,0.01l-0.16,0.008l-0.16,0.008l-0.161,0.006l-0.161,0.006l-0.161,0.005l-0.162,0.003l-0.161,0.003l-0.162,0.001l-0.162,0.001l-0.162,-0.001l-0.162,-0.001l-0.161,-0.003l-0.162,-0.003l-0.161,-0.005l-0.161,-0.006l-0.161,-0.006l-0.16,-0.008l-0.16,-0.008l-0.16,-0.01l-0.16,-0.011l-0.16,-0.011l-0.159,-0.013l-0.158,-0.014l-0.16,-0.014l-0.158,-0.016l-0.159,-0.017l-0.158,-0.017l-0.157,-0.019l-0.158,-0.019l-0.157,-0.021l-0.157,-0.021l-0.156,-0.023l-0.157,-0.023l-0.155,-0.024l-0.156,-0.026l-0.156,-0.026l-0.155,-0.027l-0.154,-0.028l-0.155,-0.03l-0.154,-0.03l-0.154,-0.031l-0.153,-0.032l-0.153,-0.032l-0.154,-0.034l-0.152,-0.035l-0.152,-0.036l-0.152,-0.036l-0.151,-0.038l-0.151,-0.038l-0.151,-0.039l-0.151,-0.041l-0.149,-0.041l-0.15,-0.042l-0.15,-0.043l-0.148,-0.043l-0.148,-0.045l-0.149,-0.046l-0.147,-0.046l-0.148,-0.048l-0.146,-0.048l-0.147,-0.049l-0.146,-0.05l-0.146,-0.051l-0.145,-0.052l-0.145,-0.052l-0.144,-0.054l-0.145,-0.054l-0.143,-0.055l-0.143,-0.056l-0.143,-0.057l-0.142,-0.057l-0.142,-0.059l-0.142,-0.06l-0.14,-0.06l-0.148,-0.064l-0.273,-0.121l-0.278,-0.128l-0.276,-0.131l-0.274,-0.134l-0.272,-0.138l-0.27,-0.14l-0.269,-0.144l-0.266,-0.147l-0.265,-0.15l-0.262,-0.153l-0.26,-0.156l-0.259,-0.159l-0.256,-0.162l-0.254,-0.165l-0.252,-0.168l-0.249,-0.171l-0.248,-0.174l-0.245,-0.177l-0.243,-0.18l-0.241,-0.182l-0.238,-0.185l-0.237,-0.188l-0.233,-0.191l-0.232,-0.193l-0.229,-0.196l-0.227,-0.199l-0.224,-0.201l-0.222,-0.205l-0.22,-0.206l-0.216,-0.209l-0.215,-0.212l-0.212,-0.215l-0.209,-0.217l-0.206,-0.219l-0.205,-0.222l-0.201,-0.224l-0.199,-0.227l-0.196,-0.229l-0.193,-0.231l-0.191,-0.234l-0.188,-0.237l-0.185,-0.238l-0.183,-0.241l-0.179,-0.243l-0.177,-0.245l-0.174,-0.248l-0.171,-0.249l-0.168,-0.252l-0.165,-0.254l-0.162,-0.256l-0.159,-0.259l-0.156,-0.26l-0.153,-0.262l-0.15,-0.265l-0.147,-0.266l-0.144,-0.268l-0.14,-0.271l-0.138,-0.272l-0.134,-0.274l-0.131,-0.276l-0.128,-0.278l-0.121,-0.273l-0.064,-0.147l-0.061,-0.142l-0.059,-0.141l-0.058,-0.142l-0.058,-0.142l-0.057,-0.143l-0.056,-0.143l-0.055,-0.144l-0.054,-0.144l-0.054,-0.144l-0.052,-0.145l-0.052,-0.145l-0.051,-0.146l-0.05,-0.146l-0.049,-0.147l-0.048,-0.146l-0.048,-0.148l-0.046,-0.147l-0.046,-0.148l-0.044,-0.149l-0.044,-0.149l-0.043,-0.149l-0.042,-0.15l-0.041,-0.15l-0.041,-0.15l-0.039,-0.151l-0.038,-0.151l-0.038,-0.151l-0.036,-0.152l-0.036,-0.152l-0.035,-0.152l-0.034,-0.154l-0.032,-0.152l-0.032,-0.154l-0.031,-0.154l-0.03,-0.154l-0.03,-0.154l-0.028,-0.155l-0.027,-0.156l-0.026,-0.155l-0.026,-0.155l-0.024,-0.156l-0.023,-0.157l-0.023,-0.156l-0.021,-0.157l-0.021,-0.157l-0.019,-0.158l-0.019,-0.158l-0.017,-0.158l-0.017,-0.158l-0.016,-0.158l-0.014,-0.159l-0.014,-0.159l-0.013,-0.16l-0.011,-0.159l-0.011,-0.16l-0.01,-0.16l-0.008,-0.16l-0.008,-0.16l-0.006,-0.161l-0.006,-0.161l-0.005,-0.161l-0.003,-0.162l-0.003,-0.161l-0.001,-0.162l-0.001,-0.162l0.001,-0.162l0.001,-0.162l0.003,-0.161l0.003,-0.162l0.005,-0.161l0.006,-0.161l0.006,-0.161l0.008,-0.16l0.008,-0.16l0.01,-0.16l0.011,-0.16l0.011,-0.159l0.013,-0.16l0.014,-0.159l0.014,-0.159l0.016,-0.158l0.017,-0.158l0.017,-0.158l0.019,-0.158l0.019,-0.158l0.021,-0.157l0.021,-0.157l0.023,-0.156l0.023,-0.157l0.024,-0.156l0.026,-0.155l0.026,-0.156l0.027,-0.155l0.028,-0.155l0.03,-0.154l0.03,-0.154l0.031,-0.154l0.032,-0.153l0.032,-0.153l0.034,-0.154l0.035,-0.152l0.036,-0.152l0.036,-0.152l0.038,-0.151l0.038,-0.151l0.039,-0.151l0.041,-0.15l0.041,-0.15l0.042,-0.15l0.043,-0.149l0.044,-0.149l0.044,-0.149l0.046,-0.148l0.046,-0.147l0.048,-0.148l0.048,-0.146l0.049,-0.147l0.05,-0.146l0.051,-0.146l0.052,-0.145l0.052,-0.145l0.054,-0.144l0.054,-0.144l0.055,-0.144l0.056,-0.143l0.057,-0.143l0.058,-0.142l0.058,-0.142l0.059,-0.141l0.061,-0.142l0.064,-0.147l0.121,-0.273l0.128,-0.278l0.131,-0.276l0.134,-0.274l0.138,-0.272l0.14,-0.271l0.144,-0.268l0.147,-0.266l0.15,-0.265l0.153,-0.262l0.156,-0.26l0.159,-0.259l0.162,-0.256l0.165,-0.254l0.168,-0.252l0.171,-0.249l0.174,-0.248l0.177,-0.245l0.179,-0.243l0.183,-0.241l0.185,-0.238l0.188,-0.237l0.191,-0.233l0.193,-0.232l0.196,-0.229l0.199,-0.227l0.201,-0.224l0.205,-0.222l0.206,-0.219l0.21,-0.217l0.211,-0.215l0.215,-0.211l0.217,-0.21l0.219,-0.206l0.222,-0.205l0.224,-0.201l0.227,-0.199l0.229,-0.196l0.232,-0.193l0.233,-0.191l0.237,-0.188l0.238,-0.185l0.241,-0.183l0.243,-0.179l0.245,-0.177l0.248,-0.174l0.249,-0.171l0.252,-0.168l0.254,-0.165l0.256,-0.162l0.259,-0.159l0.26,-0.156l0.262,-0.153l0.265,-0.15l0.266,-0.147l0.268,-0.144l0.271,-0.14l0.272,-0.138l0.274,-0.134l0.276,-0.131l0.278,-0.128l0.273,-0.121l0.147,-0.064l0.142,-0.061l0.141,-0.059l0.142,-0.058l0.142,-0.058l0.143,-0.057l0.143,-0.056l0.144,-0.055l0.144,-0.054l0.144,-0.054l0.145,-0.052l0.145,-0.052l0.146,-0.051l0.146,-0.05l0.147,-0.049l0.146,-0.048l0.148,-0.048l0.147,-0.046l0.148,-0.046l0.149,-0.044l0.149,-0.044l0.149,-0.043l0.15,-0.042l0.15,-0.041l0.15,-0.041l0.151,-0.039l0.151,-0.038l0.151,-0.038l0.152,-0.036l0.152,-0.036l0.152,-0.035l0.154,-0.034l0.153,-0.032l0.153,-0.032l0.154,-0.031l0.154,-0.03l0.154,-0.03l0.155,-0.028l0.155,-0.027l0.156,-0.026l0.155,-0.026l0.156,-0.024l0.157,-0.023l0.156,-0.023l0.157,-0.021l0.157,-0.021l0.158,-0.019l0.158,-0.019l0.158,-0.017l0.158,-0.017l0.158,-0.016l0.159,-0.014l0.159,-0.014l0.16,-0.013l0.159,-0.011l0.16,-0.011l0.16,-0.01l0.16,-0.008l0.16,-0.008l0.161,-0.006l0.161,-0.006l0.161,-0.005l0.162,-0.003l0.161,-0.003l0.162,-0.001l0.162,-0.001l0.162,0.001Zm-0.292,5l-0.13,0.001l-0.13,0.002l-0.13,0.003l-0.129,0.003l-0.13,0.005l-0.129,0.005l-0.128,0.006l-0.129,0.007l-0.129,0.008l-0.128,0.009l-0.128,0.009l-0.127,0.01l-0.128,0.011l-0.127,0.012l-0.127,0.012l-0.127,0.014l-0.127,0.014l-0.126,0.015l-0.126,0.015l-0.126,0.017l-0.126,0.017l-0.125,0.018l-0.126,0.019l-0.124,0.019l-0.125,0.02l-0.124,0.021l-0.125,0.022l-0.123,0.023l-0.124,0.023l-0.123,0.024l-0.124,0.025l-0.122,0.026l-0.123,0.026l-0.122,0.027l-0.122,0.028l-0.122,0.028l-0.121,0.029l-0.121,0.03l-0.121,0.031l-0.121,0.032l-0.12,0.032l-0.12,0.033l-0.12,0.033l-0.119,0.035l-0.119,0.035l-0.119,0.035l-0.118,0.037l-0.118,0.037l-0.118,0.038l-0.118,0.039l-0.117,0.039l-0.117,0.04l-0.116,0.041l-0.117,0.041l-0.116,0.042l-0.115,0.043l-0.115,0.043l-0.115,0.044l-0.115,0.045l-0.114,0.046l-0.114,0.046l-0.113,0.047l-0.114,0.047l-0.112,0.048l-0.113,0.049l-0.224,0.1l-0.222,0.102l-0.221,0.105l-0.22,0.107l-0.218,0.11l-0.216,0.113l-0.215,0.115l-0.214,0.118l-0.211,0.12l-0.211,0.123l-0.208,0.125l-0.207,0.127l-0.205,0.13l-0.204,0.132l-0.202,0.135l-0.2,0.137l-0.199,0.14l-0.196,0.141l-0.195,0.144l-0.193,0.147l-0.192,0.148l-0.189,0.151l-0.188,0.153l-0.185,0.155l-0.184,0.157l-0.182,0.16l-0.18,0.161l-0.178,0.164l-0.176,0.166l-0.174,0.168l-0.172,0.17l-0.17,0.172l-0.168,0.174l-0.166,0.176l-0.164,0.178l-0.161,0.18l-0.16,0.182l-0.157,0.184l-0.155,0.185l-0.153,0.188l-0.151,0.189l-0.148,0.192l-0.147,0.193l-0.144,0.195l-0.141,0.196l-0.14,0.199l-0.137,0.2l-0.135,0.202l-0.132,0.204l-0.13,0.205l-0.127,0.207l-0.125,0.208l-0.123,0.211l-0.12,0.211l-0.118,0.214l-0.115,0.215l-0.113,0.216l-0.11,0.218l-0.107,0.22l-0.105,0.221l-0.102,0.222l-0.1,0.224l-0.049,0.113l-0.048,0.112l-0.047,0.114l-0.047,0.113l-0.046,0.114l-0.046,0.114l-0.045,0.115l-0.044,0.115l-0.043,0.115l-0.043,0.115l-0.042,0.116l-0.041,0.117l-0.041,0.116l-0.04,0.117l-0.039,0.117l-0.039,0.118l-0.038,0.118l-0.037,0.118l-0.037,0.118l-0.035,0.119l-0.035,0.119l-0.035,0.119l-0.033,0.12l-0.033,0.12l-0.032,0.12l-0.032,0.121l-0.031,0.121l-0.03,0.121l-0.029,0.121l-0.028,0.122l-0.028,0.122l-0.027,0.122l-0.026,0.123l-0.026,0.122l-0.025,0.124l-0.024,0.123l-0.023,0.124l-0.023,0.123l-0.022,0.125l-0.021,0.124l-0.02,0.125l-0.019,0.124l-0.019,0.126l-0.018,0.125l-0.017,0.126l-0.017,0.126l-0.015,0.126l-0.015,0.126l-0.014,0.127l-0.014,0.127l-0.012,0.127l-0.012,0.127l-0.011,0.128l-0.01,0.127l-0.009,0.128l-0.009,0.128l-0.008,0.129l-0.007,0.129l-0.006,0.128l-0.005,0.129l-0.005,0.13l-0.003,0.129l-0.003,0.13l-0.002,0.13l-0.001,0.13l-0.001,0.13l0.001,0.13l0.001,0.13l0.002,0.13l0.003,0.13l0.003,0.129l0.005,0.13l0.005,0.129l0.006,0.128l0.007,0.129l0.008,0.129l0.009,0.128l0.009,0.128l0.01,0.127l0.011,0.128l0.012,0.127l0.012,0.127l0.014,0.127l0.014,0.127l0.015,0.126l0.015,0.126l0.017,0.126l0.017,0.126l0.018,0.125l0.019,0.126l0.019,0.124l0.02,0.125l0.021,0.124l0.022,0.125l0.023,0.123l0.023,0.124l0.024,0.123l0.025,0.124l0.026,0.122l0.026,0.123l0.027,0.122l0.028,0.122l0.028,0.122l0.029,0.121l0.03,0.121l0.031,0.121l0.032,0.121l0.032,0.12l0.033,0.12l0.033,0.12l0.035,0.119l0.035,0.119l0.035,0.119l0.037,0.118l0.037,0.118l0.038,0.118l0.039,0.118l0.039,0.117l0.04,0.117l0.041,0.116l0.041,0.117l0.042,0.116l0.043,0.115l0.043,0.115l0.044,0.115l0.045,0.115l0.046,0.114l0.046,0.114l0.047,0.113l0.047,0.114l0.048,0.112l0.049,0.113l0.1,0.224l0.102,0.222l0.105,0.221l0.107,0.22l0.11,0.218l0.113,0.216l0.115,0.215l0.118,0.214l0.12,0.211l0.123,0.211l0.125,0.208l0.127,0.207l0.13,0.205l0.132,0.204l0.135,0.202l0.137,0.2l0.14,0.199l0.141,0.196l0.144,0.195l0.147,0.193l0.148,0.192l0.151,0.189l0.153,0.188l0.155,0.185l0.157,0.184l0.16,0.182l0.161,0.18l0.164,0.178l0.166,0.176l0.168,0.174l0.17,0.172l0.172,0.17l0.174,0.168l0.176,0.166l0.178,0.164l0.18,0.161l0.182,0.16l0.184,0.157l0.185,0.155l0.188,0.153l0.189,0.151l0.192,0.148l0.193,0.147l0.195,0.144l0.196,0.141l0.199,0.14l0.2,0.137l0.202,0.135l0.204,0.132l0.205,0.13l0.207,0.127l0.208,0.125l0.211,0.123l0.211,0.12l0.214,0.118l0.215,0.115l0.216,0.113l0.218,0.11l0.22,0.107l0.221,0.105l0.222,0.102l0.224,0.1l0.113,0.049l0.112,0.048l0.114,0.047l0.113,0.047l0.114,0.046l0.114,0.046l0.115,0.045l0.115,0.044l0.115,0.043l0.115,0.043l0.116,0.042l0.117,0.041l0.116,0.041l0.117,0.04l0.117,0.039l0.118,0.039l0.118,0.038l0.118,0.037l0.118,0.037l0.119,0.035l0.119,0.035l0.119,0.035l0.12,0.033l0.12,0.033l0.12,0.032l0.121,0.032l0.121,0.031l0.121,0.03l0.121,0.029l0.122,0.028l0.122,0.028l0.122,0.027l0.123,0.026l0.122,0.026l0.124,0.025l0.123,0.024l0.124,0.023l0.123,0.023l0.125,0.022l0.124,0.021l0.125,0.02l0.124,0.019l0.126,0.019l0.125,0.018l0.126,0.017l0.126,0.017l0.126,0.015l0.126,0.015l0.127,0.014l0.127,0.014l0.127,0.012l0.127,0.012l0.128,0.011l0.127,0.01l0.128,0.009l0.128,0.009l0.129,0.008l0.129,0.007l0.128,0.006l0.129,0.005l0.13,0.005l0.129,0.003l0.13,0.003l0.13,0.002l0.13,0.001l0.13,0.001l0.13,-0.001l0.13,-0.001l0.13,-0.002l0.13,-0.003l0.129,-0.003l0.13,-0.005l0.129,-0.005l0.128,-0.006l0.129,-0.007l0.129,-0.008l0.128,-0.009l0.128,-0.009l0.127,-0.01l0.128,-0.011l0.127,-0.012l0.127,-0.012l0.127,-0.014l0.127,-0.014l0.126,-0.015l0.126,-0.015l0.126,-0.017l0.126,-0.017l0.125,-0.018l0.126,-0.019l0.124,-0.019l0.125,-0.02l0.124,-0.021l0.125,-0.022l0.123,-0.023l0.124,-0.023l0.123,-0.024l0.124,-0.025l0.122,-0.026l0.123,-0.026l0.122,-0.027l0.122,-0.028l0.122,-0.028l0.121,-0.029l0.121,-0.03l0.121,-0.031l0.121,-0.032l0.12,-0.032l0.12,-0.033l0.12,-0.033l0.119,-0.035l0.119,-0.035l0.119,-0.035l0.118,-0.037l0.118,-0.037l0.118,-0.038l0.118,-0.039l0.117,-0.039l0.117,-0.04l0.116,-0.041l0.117,-0.041l0.116,-0.042l0.115,-0.043l0.115,-0.043l0.115,-0.044l0.115,-0.045l0.114,-0.046l0.114,-0.046l0.113,-0.047l0.114,-0.047l0.112,-0.048l0.113,-0.049l0.224,-0.1l0.222,-0.102l0.221,-0.105l0.22,-0.107l0.218,-0.11l0.216,-0.113l0.215,-0.115l0.214,-0.118l0.211,-0.12l0.211,-0.123l0.208,-0.125l0.207,-0.127l0.205,-0.13l0.204,-0.132l0.202,-0.135l0.2,-0.137l0.199,-0.14l0.196,-0.141l0.195,-0.144l0.193,-0.147l0.192,-0.148l0.189,-0.151l0.188,-0.153l0.185,-0.155l0.184,-0.157l0.182,-0.16l0.18,-0.161l0.178,-0.164l0.176,-0.166l0.174,-0.168l0.172,-0.17l0.17,-0.172l0.168,-0.174l0.166,-0.176l0.164,-0.178l0.161,-0.18l0.16,-0.182l0.157,-0.184l0.155,-0.185l0.153,-0.188l0.151,-0.189l0.148,-0.192l0.147,-0.193l0.144,-0.195l0.141,-0.196l0.14,-0.199l0.137,-0.2l0.135,-0.202l0.132,-0.204l0.13,-0.205l0.127,-0.207l0.125,-0.208l0.123,-0.211l0.12,-0.211l0.118,-0.214l0.115,-0.215l0.113,-0.216l0.11,-0.218l0.107,-0.22l0.105,-0.221l0.102,-0.222l0.1,-0.224l0.049,-0.113l0.048,-0.112l0.047,-0.114l0.047,-0.113l0.046,-0.114l0.046,-0.114l0.045,-0.115l0.044,-0.115l0.043,-0.115l0.043,-0.115l0.042,-0.116l0.041,-0.117l0.041,-0.116l0.04,-0.117l0.039,-0.117l0.039,-0.118l0.038,-0.118l0.037,-0.118l0.037,-0.118l0.035,-0.119l0.035,-0.119l0.035,-0.119l0.033,-0.12l0.033,-0.12l0.032,-0.12l0.032,-0.121l0.031,-0.121l0.03,-0.121l0.029,-0.121l0.028,-0.122l0.028,-0.122l0.027,-0.122l0.026,-0.123l0.026,-0.122l0.025,-0.124l0.024,-0.123l0.023,-0.124l0.023,-0.123l0.022,-0.125l0.021,-0.124l0.02,-0.125l0.019,-0.124l0.019,-0.126l0.018,-0.125l0.017,-0.126l0.017,-0.126l0.015,-0.126l0.015,-0.126l0.014,-0.127l0.014,-0.127l0.012,-0.127l0.012,-0.127l0.011,-0.128l0.01,-0.127l0.009,-0.128l0.009,-0.128l0.008,-0.129l0.007,-0.129l0.006,-0.128l0.005,-0.129l0.005,-0.13l0.003,-0.129l0.003,-0.13l0.002,-0.13l0.001,-0.13l0.001,-0.13l-0.001,-0.13l-0.001,-0.13l-0.002,-0.13l-0.003,-0.13l-0.003,-0.129l-0.005,-0.13l-0.005,-0.129l-0.006,-0.128l-0.007,-0.129l-0.008,-0.129l-0.009,-0.128l-0.009,-0.128l-0.01,-0.127l-0.011,-0.128l-0.012,-0.127l-0.012,-0.127l-0.014,-0.127l-0.014,-0.127l-0.015,-0.126l-0.015,-0.126l-0.017,-0.126l-0.017,-0.126l-0.018,-0.125l-0.019,-0.126l-0.019,-0.124l-0.02,-0.125l-0.021,-0.124l-0.022,-0.125l-0.023,-0.123l-0.023,-0.124l-0.024,-0.123l-0.025,-0.124l-0.026,-0.122l-0.026,-0.123l-0.027,-0.122l-0.028,-0.122l-0.028,-0.122l-0.029,-0.121l-0.03,-0.121l-0.031,-0.121l-0.032,-0.121l-0.032,-0.12l-0.033,-0.12l-0.033,-0.12l-0.035,-0.119l-0.035,-0.119l-0.035,-0.119l-0.037,-0.118l-0.037,-0.118l-0.038,-0.118l-0.039,-0.118l-0.039,-0.117l-0.04,-0.117l-0.041,-0.116l-0.041,-0.117l-0.042,-0.116l-0.043,-0.115l-0.043,-0.115l-0.044,-0.115l-0.045,-0.115l-0.046,-0.114l-0.046,-0.114l-0.047,-0.113l-0.047,-0.114l-0.048,-0.112l-0.049,-0.113l-0.1,-0.224l-0.102,-0.222l-0.105,-0.221l-0.107,-0.22l-0.11,-0.218l-0.113,-0.216l-0.115,-0.215l-0.118,-0.214l-0.12,-0.211l-0.123,-0.211l-0.125,-0.208l-0.127,-0.207l-0.13,-0.205l-0.132,-0.204l-0.135,-0.202l-0.137,-0.2l-0.14,-0.199l-0.141,-0.196l-0.144,-0.195l-0.147,-0.193l-0.148,-0.192l-0.151,-0.189l-0.153,-0.188l-0.155,-0.185l-0.157,-0.184l-0.16,-0.182l-0.161,-0.18l-0.164,-0.178l-0.166,-0.176l-0.168,-0.174l-0.17,-0.172l-0.172,-0.17l-0.174,-0.168l-0.176,-0.166l-0.178,-0.164l-0.18,-0.161l-0.182,-0.16l-0.184,-0.157l-0.185,-0.155l-0.188,-0.153l-0.189,-0.151l-0.192,-0.148l-0.193,-0.147l-0.195,-0.144l-0.196,-0.141l-0.199,-0.14l-0.2,-0.137l-0.202,-0.135l-0.204,-0.132l-0.205,-0.13l-0.207,-0.127l-0.208,-0.125l-0.211,-0.123l-0.211,-0.12l-0.214,-0.118l-0.215,-0.115l-0.216,-0.113l-0.218,-0.11l-0.22,-0.107l-0.221,-0.105l-0.222,-0.102l-0.224,-0.1l-0.113,-0.049l-0.112,-0.048l-0.114,-0.047l-0.113,-0.047l-0.114,-0.046l-0.114,-0.046l-0.115,-0.045l-0.115,-0.044l-0.115,-0.043l-0.115,-0.043l-0.116,-0.042l-0.117,-0.041l-0.116,-0.041l-0.117,-0.04l-0.117,-0.039l-0.118,-0.039l-0.118,-0.038l-0.118,-0.037l-0.118,-0.037l-0.119,-0.035l-0.119,-0.035l-0.119,-0.035l-0.12,-0.033l-0.12,-0.033l-0.12,-0.032l-0.121,-0.032l-0.121,-0.031l-0.121,-0.03l-0.121,-0.029l-0.122,-0.028l-0.122,-0.028l-0.122,-0.027l-0.123,-0.026l-0.122,-0.026l-0.124,-0.025l-0.123,-0.024l-0.124,-0.023l-0.123,-0.023l-0.125,-0.022l-0.124,-0.021l-0.125,-0.02l-0.124,-0.019l-0.126,-0.019l-0.125,-0.018l-0.126,-0.017l-0.126,-0.017l-0.126,-0.015l-0.126,-0.015l-0.127,-0.014l-0.127,-0.014l-0.127,-0.012l-0.127,-0.012l-0.128,-0.011l-0.127,-0.01l-0.128,-0.009l-0.128,-0.009l-0.129,-0.008l-0.129,-0.007l-0.128,-0.006l-0.129,-0.005l-0.13,-0.005l-0.129,-0.003l-0.13,-0.003l-0.13,-0.002l-0.13,-0.001l-0.13,-0.001l-0.13,0.001Z" style="fill:#808080;"/><path d="M250,116.694l0,-88.392l13.58,205.217l-13.58,-2.431l-13.58,2.431l13.58,-205.217l0,88.392Z" style="fill:#808080;"/><path d="M250,125.48l0,-81.745l9.717,189.784l-9.717,-2.248l-9.717,2.248l9.717,-189.784l0,81.745Z" style="fill:#295aa0;"/><circle cx="250" cy="250" r="20.154" style="fill:#295aa0;"/></g></svg>